<svg width="194" height="160" viewBox="0 0 194 160" fill="none" xmlns="http://www.w3.org/2000/svg">
<path d="M24.9087 67.1033L92.9369 24.168L160.965 67.1033V129.747H24.9087V67.1033Z" fill="#E6E7E8"/>
<path fill-rule="evenodd" clip-rule="evenodd" d="M24.5939 129.748C24.5939 129.921 24.7349 130.062 24.9089 130.062H160.965C161.137 130.077 161.289 129.951 161.306 129.779V67.1355C161.305 67.0269 161.248 66.9265 161.154 66.8711L93.101 23.9296C92.9984 23.8672 92.8696 23.8672 92.767 23.9296L24.7388 66.8397C24.6468 66.8957 24.5916 66.9964 24.5939 67.104V129.748ZM160.682 129.433H25.2051V67.2803L92.9372 24.559L160.682 67.2803V129.433Z" fill="#231F20"/>
<path d="M109.509 50.2396C111.771 46.5069 112.345 41.9685 112.137 37.6127C111.986 32.8471 110.728 28.1818 108.463 23.9849C107.543 22.1826 106.193 20.6346 104.531 19.478C102.49 18.2191 101.097 19.0689 99.0995 18.729C97.4108 18.4394 95.6464 17.2372 93.775 16.9287C89.4577 16.1914 85.0212 17.1183 81.3615 19.5221C74.9594 23.8465 72.0042 32.1112 65.3878 36.1272C58.9039 40.0424 50.6051 38.8653 43.3335 41.0306C40.2641 41.9496 37.4043 43.4592 34.915 45.4746C33.1953 46.7898 31.7881 48.4685 30.794 50.3907C29.0864 53.9534 29.5338 58.1959 30.794 61.9538C32.0543 65.8187 34.1841 69.5073 37.4859 71.9055C40.2522 73.9009 43.6486 74.8199 47.0071 75.4242C51.5755 76.2488 56.3078 76.5572 60.8699 75.569C64.2369 74.8902 67.375 73.365 69.9878 71.1376C71.1094 70.1368 71.7269 68.7708 72.7729 67.7763C74.2159 66.4104 76.4654 65.5732 78.1542 64.5283C80.7944 62.8854 83.4409 61.1355 86.4529 60.355C94.1026 58.3659 104.897 57.8246 109.509 50.2396Z" fill="white"/>
<path fill-rule="evenodd" clip-rule="evenodd" d="M46.9382 75.7336C49.523 76.2222 52.1464 76.4792 54.777 76.5016C56.8426 76.5252 58.9047 76.3247 60.927 75.9036C64.3628 75.2121 67.5619 73.6467 70.215 71.3589C70.7899 70.8138 71.3014 70.2057 71.7399 69.5461C72.1107 68.9898 72.5326 68.4693 73.0002 67.9913C74.0333 67.1207 75.1801 66.3943 76.4091 65.8323C77.0708 65.4924 77.7009 65.1462 78.331 64.7748L78.9611 64.3656L79.0128 64.3335C81.3847 62.858 83.8264 61.3392 86.5226 60.6455C87.9681 60.2681 89.5106 59.9534 91.1447 59.62L91.3935 59.5692L91.3941 59.569C98.2371 58.1717 105.975 56.5916 109.755 50.4106C111.797 47.0682 112.673 42.7878 112.427 37.6263C112.282 32.8131 111.011 28.1007 108.716 23.8664C107.777 22.0202 106.391 20.4382 104.683 19.265C103.606 18.6008 102.331 18.3357 101.078 18.516C100.436 18.576 99.7892 18.5612 99.1503 18.4719C98.3055 18.2819 97.4836 18.0012 96.6991 17.6347C95.7773 17.1861 94.8038 16.8521 93.8006 16.6402C89.4138 15.9024 84.9102 16.8539 81.1981 19.3028C78.0727 21.4304 75.7286 24.5084 73.4664 27.4857L73.444 27.5152C71.0629 30.647 68.6039 33.8811 65.237 35.9142C61.3681 38.2495 56.9257 38.7404 52.2249 39.2566C49.1966 39.5034 46.196 40.0173 43.2583 40.7925C40.1541 41.7211 37.2621 43.2479 34.7453 45.2868C32.9855 46.6291 31.5511 48.3503 30.5487 50.3224C28.6142 54.3132 29.4712 58.9523 30.5046 62.0996C31.9538 66.5058 34.2916 70.0119 37.2973 72.1709C40.303 74.33 44.027 75.2112 46.9382 75.7336ZM81.5257 19.8127C84.3017 17.9654 87.5665 16.9879 90.902 17.0053C91.8634 17.0126 92.8225 17.1011 93.7691 17.2696C94.7185 17.4677 95.6408 17.7783 96.5164 18.1949C97.3376 18.5825 98.2001 18.876 99.0873 19.0699C99.7698 19.1659 100.461 19.1849 101.148 19.1265C102.278 18.9382 103.439 19.1616 104.418 19.756C106.041 20.8846 107.358 22.3988 108.249 24.1622C110.501 28.3169 111.747 32.9414 111.885 37.6641C112.125 42.7123 111.255 46.9045 109.302 50.1273C105.672 56.0946 98.0476 57.6493 91.3116 59.0153C89.5661 59.3678 87.953 59.7014 86.4155 60.0979C83.6264 60.8054 81.1428 62.3536 78.7414 63.8506L78.7028 63.8747L78.0348 64.2901C77.4488 64.6489 76.8187 64.9762 76.1445 65.3224C74.8664 65.9081 73.6748 66.6664 72.6032 67.5759C72.1043 68.0772 71.6549 68.6253 71.261 69.2125C70.8456 69.8372 70.3616 70.4135 69.818 70.9309C67.2397 73.1505 64.1318 74.6681 60.7946 75.3371C56.8564 76.1931 52.3699 76.1428 47.0642 75.1923C44.2161 74.6762 40.5487 73.8012 37.6565 71.7177C34.7642 69.6342 32.4894 66.2477 31.078 61.9108C30.0635 58.8579 29.2506 54.395 31.078 50.5805C32.0505 48.6944 33.4326 47.0492 35.1234 45.7652C37.5818 43.7688 40.4074 42.2719 43.441 41.359C46.3433 40.5932 49.3083 40.0876 52.3006 39.8483L52.3438 39.8435C56.8737 39.3414 61.5697 38.8209 65.5332 36.424C68.9975 34.3388 71.4958 31.0504 73.9105 27.8718L73.9264 27.8508L73.9591 27.8079C76.1859 24.8817 78.4845 21.861 81.5257 19.8127Z" fill="#231F20"/>
<path d="M135.219 44.0709L131.904 56.5341L139.888 57.9567L144.437 41.3076C144.437 41.3076 137.342 35.8816 136.246 35.8439C135.149 35.8061 135.219 44.0709 135.219 44.0709Z" fill="white"/>
<path fill-rule="evenodd" clip-rule="evenodd" d="M139.831 58.2727H139.888C140.02 58.2709 140.137 58.1848 140.177 58.0586L144.733 41.4095C144.765 41.2856 144.721 41.1546 144.62 41.0759C143.416 40.1632 137.38 35.587 136.252 35.5492C136.095 35.5431 135.943 35.6051 135.836 35.7192C134.903 36.6193 134.903 42.7376 134.903 44.0721L131.614 56.4787C131.589 56.5633 131.602 56.6544 131.649 56.729C131.696 56.8035 131.773 56.8545 131.86 56.869L139.831 58.2727ZM139.673 57.5991L132.326 56.3025L135.552 44.1728C135.556 44.1456 135.556 44.1181 135.552 44.091C135.527 40.566 135.804 36.4934 136.252 36.1598C136.857 36.1787 140.675 38.835 144.084 41.4284L139.673 57.5991Z" fill="#231F20"/>
<path d="M126.592 35.9195C126.592 35.9195 127.72 38.4373 129.346 38.8465C130.971 39.2556 134.506 37.512 134.916 37.7386C135.326 37.9652 144.651 44.9396 145.559 45.1473C146.466 45.3551 148.136 43.1583 148.848 40.546C148.848 40.546 139.774 34.3647 139.182 33.7101C138.59 33.0555 137.884 29.1402 137.002 27.7051L126.592 35.9195Z" fill="white"/>
<path fill-rule="evenodd" clip-rule="evenodd" d="M145.458 45.4812C145.523 45.4873 145.588 45.4873 145.653 45.4812C146.882 45.4812 148.489 42.976 149.138 40.6847C149.176 40.556 149.125 40.4176 149.012 40.3448C145.376 37.8648 139.818 34.0125 139.402 33.553C139.014 32.7751 138.722 31.9528 138.533 31.1044C138.242 29.8933 137.819 28.7176 137.273 27.5983C137.223 27.5238 137.146 27.4717 137.058 27.4535C136.969 27.4389 136.878 27.4617 136.806 27.5165L126.416 35.6994C126.302 35.7867 126.265 35.9418 126.327 36.0708C126.328 36.0726 126.329 36.075 126.331 36.078C126.416 36.2603 127.566 38.7222 129.289 39.1803C130.379 39.4683 132.168 38.8785 133.483 38.4448L133.504 38.4376C133.654 38.3852 133.816 38.3216 133.972 38.2602C134.341 38.115 134.681 37.9816 134.765 38.0347C134.884 38.1103 135.855 38.809 136.97 39.6272C141.917 43.234 144.891 45.3427 145.458 45.4812ZM135.067 37.4619C134.987 37.4212 134.898 37.4017 134.809 37.4053C134.284 37.4681 133.769 37.5993 133.278 37.7955L133.264 37.8001C132.098 38.1841 130.338 38.7639 129.421 38.5257C128.243 38.2299 127.291 36.5996 126.983 36.0079L136.882 28.1837C137.297 29.171 137.641 30.1871 137.909 31.224C138.331 32.6592 138.602 33.5656 138.924 33.9181C139.491 34.5538 146.926 39.6398 148.457 40.6784C147.695 43.2655 146.195 45.0028 145.603 44.8454C145.096 44.7107 141.246 41.9209 138.568 39.98C138.12 39.6547 137.704 39.3533 137.342 39.0922C137.17 38.9673 137.009 38.8504 136.859 38.7412C135.715 37.909 135.184 37.5231 135.067 37.4619Z" fill="#231F20"/>
<path d="M136.51 30.0538C136.436 30.7193 136.561 31.3919 136.869 31.9863C137.38 32.899 139.642 34.1138 139.642 34.1138L141.217 30.9666L138.13 28.7383L136.51 30.0538Z" fill="#231F20"/>
<path fill-rule="evenodd" clip-rule="evenodd" d="M139.497 34.3905C139.541 34.4156 139.591 34.4286 139.642 34.4283C139.675 34.4263 139.707 34.4177 139.736 34.4031C139.818 34.3784 139.886 34.3216 139.925 34.2457L141.501 31.0984C141.566 30.9611 141.523 30.7969 141.4 30.7082L138.319 28.4799C138.204 28.3895 138.042 28.3895 137.928 28.4799L136.308 29.8144C136.249 29.8634 136.211 29.9332 136.201 30.0095C136.118 30.7424 136.256 31.4833 136.598 32.137C137.134 33.1001 139.251 34.2646 139.497 34.3905ZM137.146 31.8349C136.889 31.3385 136.774 30.7811 136.813 30.2235L138.142 29.1219L140.814 31.0544L139.509 33.6855C138.779 33.2638 137.474 32.4644 137.146 31.8349Z" fill="#231F20"/>
<path d="M146.39 38.8781C146.39 38.8781 147.216 36.2785 145.76 36.0959C145.733 35.6306 145.465 35.213 145.053 34.9944C144.641 34.7757 144.145 34.7876 143.744 35.0259C143.744 35.0259 143.278 33.0934 141.753 33.4837C140.228 33.874 139.018 37.5185 139.232 38.4375C139.446 39.3565 140.631 38.7963 141.23 37.934C141.23 37.934 140.455 39.3691 140.971 39.7468C141.727 40.3007 142.521 39.3188 143.164 38.6012C143.164 38.6012 142.213 40.2818 143.612 40.4329C144.689 40.5525 145.691 38.3809 145.691 38.3809L146.39 38.8781Z" fill="white"/>
<path fill-rule="evenodd" clip-rule="evenodd" d="M143.549 40.7549H143.668C144.632 40.7549 145.439 39.4834 145.741 38.8413L146.17 39.1372C146.253 39.1934 146.358 39.2074 146.453 39.1749C146.548 39.1448 146.622 39.0692 146.649 38.9735C146.724 38.791 147.21 37.1984 146.649 36.3235C146.497 36.0824 146.261 35.9055 145.987 35.8262C145.874 35.3575 145.585 34.9499 145.181 34.6869C144.789 34.4888 144.333 34.4615 143.92 34.6114C143.737 34.1002 143.398 33.6597 142.95 33.3524C142.56 33.1179 142.088 33.0585 141.652 33.1888C139.913 33.6357 138.659 37.4502 138.892 38.514C138.941 38.8637 139.207 39.1439 139.554 39.2127C139.872 39.2568 140.195 39.1878 140.467 39.0176C140.365 39.374 140.475 39.7577 140.751 40.0058C141.375 40.4653 141.98 40.1758 142.503 39.7163C142.506 40.2909 142.973 40.7549 143.549 40.7549ZM143.322 38.3503C143.268 38.3082 143.201 38.2859 143.133 38.2874C143.044 38.2875 142.96 38.324 142.9 38.3881L142.767 38.5392C142.087 39.2945 141.564 39.8107 141.123 39.4896C140.978 39.3826 141.154 38.7028 141.475 38.0734C141.55 37.9263 141.501 37.7468 141.362 37.6579C141.22 37.5714 141.035 37.61 140.94 37.7461C140.67 38.2033 140.206 38.5119 139.68 38.5832C139.635 38.5769 139.554 38.5581 139.509 38.3629C139.339 37.5635 140.467 34.1267 141.809 33.7868C142.081 33.7017 142.375 33.7337 142.622 33.8749C143.017 34.181 143.297 34.6113 143.416 35.096C143.441 35.1864 143.503 35.262 143.586 35.3038C143.67 35.3417 143.767 35.3417 143.851 35.3038C144.168 35.1204 144.551 35.0925 144.891 35.2282C145.183 35.4451 145.378 35.7686 145.433 36.1283C145.453 36.2684 145.563 36.3783 145.704 36.399C145.88 36.4116 146.04 36.5045 146.138 36.6508C146.345 37.1976 146.365 37.7973 146.195 38.3566L145.842 38.1111C145.766 38.056 145.668 38.0397 145.578 38.0671C145.489 38.0923 145.416 38.1542 145.376 38.237C145.08 38.8665 144.248 40.1946 143.618 40.1254C143.271 40.0876 143.183 39.9492 143.183 39.9051C143.032 39.6092 143.271 39.005 143.41 38.7595C143.486 38.6201 143.448 38.4462 143.322 38.3503Z" fill="#231F20"/>
<path d="M139.654 31.0789C139.654 31.0789 138.791 29.5808 137.884 30.8963C136.976 32.2119 135.886 34.6731 137.399 34.9374C138.911 35.2018 140.045 32.3818 139.654 31.0789Z" fill="white"/>
<path fill-rule="evenodd" clip-rule="evenodd" d="M137.348 35.2588C137.43 35.265 137.512 35.265 137.594 35.2588C138.136 35.2334 138.641 34.9766 138.98 34.5538C139.811 33.568 140.167 32.2685 139.957 30.9974L139.925 30.9281C139.925 30.9268 139.924 30.9252 139.923 30.9235C139.86 30.8211 139.403 30.0778 138.722 30.0469C138.262 30.0644 137.845 30.3227 137.625 30.7267C136.976 31.6583 136 33.5278 136.441 34.579C136.6 34.9512 136.946 35.2104 137.348 35.2588ZM138.142 31.0603C138.268 30.8778 138.47 30.6574 138.678 30.6574H138.69C138.974 30.67 139.257 31.0288 139.358 31.1925C139.494 32.2438 139.186 33.3043 138.508 34.1195C138.263 34.455 137.864 34.6425 137.449 34.6167C137.261 34.6026 137.097 34.4865 137.02 34.3146C136.756 33.6788 137.38 32.1619 138.142 31.0603Z" fill="#231F20"/>
<path d="M135.212 44.915C135.212 44.915 134.217 40.1626 134.122 39.3128C133.964 37.8713 134.305 35.6179 135.571 35.2654C136.838 34.9129 139.736 34.5793 139.258 35.8508C138.823 37.009 136.283 37.2293 136.283 37.2293C136.283 37.2293 138.035 38.9918 137.77 40.7479" fill="white"/>
<path d="M135.212 45.2303C135.064 45.231 134.936 45.1289 134.903 44.9848C134.866 44.7897 133.908 40.201 133.813 39.3197C133.65 37.8468 133.965 35.3604 135.489 34.9135C136.283 34.6932 138.709 34.24 139.421 35.0142C139.641 35.2586 139.693 35.6106 139.554 35.9081C139.195 36.8774 137.745 37.2614 136.907 37.4125C137.437 38.0797 138.287 39.3953 138.079 40.7423C138.062 40.8547 137.987 40.9496 137.881 40.9913C137.775 41.0329 137.655 41.0149 137.566 40.9441C137.477 40.8732 137.432 40.7603 137.449 40.6479C137.689 39.0679 136.069 37.4125 136.057 37.3999C135.971 37.3117 135.941 37.1828 135.981 37.0663C136.025 36.9524 136.13 36.8739 136.252 36.8648C136.882 36.8082 138.659 36.4872 138.955 35.6878C139.024 35.5178 138.955 35.4675 138.955 35.4423C138.621 35.0709 136.876 35.1842 135.653 35.5178C134.626 35.8011 134.286 37.8531 134.437 39.2253C134.532 40.0499 135.515 44.7582 135.521 44.8023C135.54 44.8843 135.524 44.9702 135.477 45.0403C135.431 45.1104 135.358 45.1586 135.275 45.1737L135.212 45.2303Z" fill="#231F20"/>
<path d="M153.82 26.8942C153.82 26.8942 143.322 25.8556 139.037 28.3357C137.96 28.9779 136.928 29.693 135.949 30.4759C133.624 32.295 131.438 34.3596 129.736 35.5115C126.359 37.7776 123.095 38.2371 120.87 34.6303C118.98 31.5522 120.083 30.0919 122.641 27.3537C123.901 26.0004 126.573 23.7658 128.873 21.2921C130.232 19.9169 131.379 18.347 132.276 16.6341C134.216 12.5552 133.668 6.30469 133.668 6.30469L153.82 26.8942Z" fill="white"/>
<path fill-rule="evenodd" clip-rule="evenodd" d="M124.008 37.4738C124.339 37.5481 124.678 37.584 125.017 37.5808C126.46 37.5808 128.098 36.9766 129.925 35.768C131.128 34.9095 132.284 33.9893 133.391 33.011C134.267 32.2619 135.206 31.4814 136.157 30.7324C137.124 29.9583 138.143 29.2516 139.207 28.6174C143.132 26.3354 152.606 27.1102 153.698 27.1995C153.76 27.2045 153.795 27.2074 153.801 27.2074C153.933 27.2176 154.059 27.145 154.116 27.0248C154.172 26.907 154.149 26.7667 154.059 26.6724L133.895 6.06392C133.803 5.96485 133.658 5.9368 133.536 5.99468C133.416 6.05165 133.343 6.17681 133.353 6.30941C133.359 6.37235 133.882 12.541 131.992 16.5066C131.113 18.1909 129.985 19.7335 128.646 21.0828C127.317 22.4802 125.899 23.8272 124.639 24.998C123.731 25.8352 122.95 26.5653 122.408 27.1444C119.824 29.9141 118.57 31.5066 120.606 34.8049C121.316 36.1309 122.55 37.0989 124.008 37.4738ZM132.566 16.7773C134.103 13.5104 134.109 8.99089 134.034 7.10252L153.026 26.5339C150.417 26.3387 142.553 25.9737 138.905 28.0949C137.806 28.7458 136.753 29.4714 135.754 30.2666C134.929 30.912 134.127 31.5856 133.344 32.2428C133.218 32.3483 133.093 32.4533 132.969 32.5578C131.882 33.5203 130.744 34.4238 129.56 35.2644C127.462 36.6681 125.64 37.2158 124.141 36.8884C122.852 36.5409 121.766 35.6747 121.141 34.4965C119.339 31.5569 120.347 30.2477 122.868 27.5725C123.38 27.0244 124.139 26.3197 125.009 25.5113L125.067 25.4575L125.09 25.4361C126.351 24.2643 127.772 22.9435 129.106 21.5108C130.488 20.1132 131.654 18.5179 132.566 16.7773Z" fill="#231F20"/>
<path d="M136.51 30.0526C134.185 31.8718 131.375 34.2826 129.736 35.5037C125.993 38.2985 123.624 38.5944 121.179 35.1386C118.659 31.5885 120.083 30.103 122.641 27.3585C123.901 26.0052 126.573 23.7706 128.873 21.2969C128.873 21.2969 129.018 23.8714 131.583 27.0123C132.842 28.5442 134.575 29.6138 136.51 30.0526Z" fill="#231F20"/>
<path fill-rule="evenodd" clip-rule="evenodd" d="M124.412 37.9346C124.604 37.9654 124.797 37.9802 124.992 37.9787C126.34 37.9787 127.915 37.2737 129.925 35.7567C130.753 35.1412 131.87 34.2253 133.068 33.2431C133.157 33.1707 133.245 33.0979 133.334 33.0249C133.47 32.9145 133.606 32.8036 133.742 32.6925C134.745 31.8729 135.762 31.0429 136.706 30.3056C136.8 30.2254 136.844 30.0999 136.819 29.9783C136.786 29.8594 136.688 29.7693 136.567 29.7454C134.708 29.3136 133.043 28.2829 131.828 26.8121C129.371 23.797 129.188 21.2792 129.188 21.2792C129.18 21.1537 129.099 21.0448 128.98 21.0022C128.863 20.9575 128.73 20.9901 128.646 21.0841C127.317 22.4815 125.899 23.8285 124.639 24.9993C124.565 25.0674 124.492 25.1347 124.42 25.2011C123.606 25.9516 122.903 26.599 122.377 27.1772L122.368 27.1865C119.815 29.9254 118.271 31.5813 120.921 35.3224C122.043 36.9086 123.152 37.7395 124.412 37.9346ZM125.067 25.4588C126.195 24.4139 127.455 23.2431 128.659 21.9842C129.127 23.9122 130.045 25.7023 131.337 27.2087C132.502 28.6236 134.058 29.6654 135.811 30.2049C134.878 30.9477 133.895 31.7534 132.937 32.5402C132.697 32.7371 132.459 32.9329 132.225 33.1253C131.202 33.966 130.26 34.7409 129.547 35.2532C127.361 36.8834 125.811 37.5129 124.506 37.3115C123.429 37.1415 122.452 36.3925 121.438 34.9573C119.094 31.6364 120.341 30.2939 122.848 27.5955L122.868 27.5738C123.38 27.0257 124.139 26.321 125.009 25.5127L125.067 25.4588Z" fill="#231F20"/>
<path d="M156.731 26.0067C154.38 28.1154 149.169 26.3592 144.097 22.0726C142.797 20.9761 141.576 19.7898 140.442 18.5225C139.328 17.2787 138.301 15.96 137.367 14.5758C133.586 9.02398 132.408 3.64841 134.777 1.52714C137.701 -1.0977 144.998 2.25102 151.066 9.01139C157.134 15.7718 159.667 23.3756 156.731 26.0067Z" fill="#7C5DFA"/>
<path fill-rule="evenodd" clip-rule="evenodd" d="M134.336 1.06745C135.193 0.339507 136.294 -0.0382004 137.418 0.00995751C141.299 0.00995751 146.819 3.37755 151.52 8.56428C154.291 11.5358 156.447 15.0247 157.865 18.8307C159.044 22.2927 158.773 24.9994 157.153 26.4472C156.294 27.1902 155.182 27.5775 154.047 27.5298C151.23 27.5298 147.449 25.7044 143.668 22.5571C141.054 20.3284 138.753 17.7581 136.825 14.9155C132.774 8.93566 131.772 3.36497 134.336 1.06745ZM151.047 9.01749C146.384 3.82447 140.99 0.639415 137.418 0.639415C136.458 0.597522 135.517 0.913891 134.777 1.52695C132.408 3.64822 133.587 9.02379 137.367 14.5756C138.296 15.9616 139.32 17.2824 140.43 18.5286C141.563 19.7959 142.784 20.9822 144.084 22.0787C147.72 25.1379 151.394 26.9067 154.059 26.9067C155.026 26.9522 155.975 26.6332 156.718 26.0128C159.667 23.3817 157.122 15.7779 151.047 9.01749Z" fill="#231F20"/>
<path d="M148.287 16.8353L144.097 22.0724C142.797 20.9759 141.576 19.7896 140.442 18.5223C139.328 17.2785 138.301 15.9598 137.367 14.5756L143.429 10.8555L148.287 16.8353Z" fill="white"/>
<ellipse cx="145.847" cy="13.866" rx="1.79509" ry="3.85392" transform="rotate(-39.4 145.847 13.866)" fill="#231F20"/>
<path fill-rule="evenodd" clip-rule="evenodd" d="M144.204 15.1925C145.319 16.5521 146.655 17.3515 147.644 17.3515C147.942 17.3562 148.233 17.2609 148.47 17.0809C149.384 16.3255 148.936 14.3239 147.449 12.5173C146.85 11.7395 146.091 11.098 145.225 10.6352C144.38 10.2576 143.662 10.2513 143.189 10.6352C142.717 11.0192 142.585 11.7305 142.818 12.6369C143.097 13.5759 143.569 14.4464 144.204 15.1925ZM143.586 11.1199C143.719 11.0214 143.882 10.9724 144.046 10.9814C144.354 11.0007 144.655 11.0843 144.929 11.2269C145.722 11.64 146.419 12.2147 146.977 12.9139C148.3 14.5253 148.621 16.143 148.079 16.5899C147.537 17.0368 146.012 16.4074 144.689 14.7959C144.11 14.1213 143.681 13.3319 143.429 12.4795C143.265 11.8375 143.322 11.3402 143.586 11.1199Z" fill="#231F20"/>
<path d="M143.133 38.9159C143.077 38.9163 143.023 38.9011 142.975 38.8719C142.902 38.8311 142.849 38.7625 142.828 38.6818C142.807 38.6012 142.819 38.5153 142.862 38.4439C143.253 37.8034 143.737 37.2244 144.299 36.7254C144.382 36.6375 144.508 36.6051 144.623 36.6419C144.739 36.6788 144.823 36.7784 144.839 36.8982C144.856 37.0181 144.803 37.1369 144.702 37.2038C144.212 37.6642 143.788 38.1894 143.442 38.7649C143.377 38.8706 143.256 38.9294 143.133 38.9159Z" fill="#231F20"/>
<path d="M141.198 38.2494H141.148C141.066 38.2328 140.994 38.1842 140.948 38.1146C140.902 38.0449 140.885 37.9599 140.902 37.8781C141.13 36.9797 141.662 36.1878 142.408 35.6372C142.547 35.5329 142.745 35.5611 142.849 35.7001C142.954 35.8392 142.925 36.0365 142.786 36.1407C142.169 36.6004 141.725 37.2547 141.526 37.9976C141.492 38.1499 141.354 38.2561 141.198 38.2494Z" fill="#231F20"/>
<path d="M145.66 38.6956C145.596 38.6961 145.534 38.6762 145.483 38.639C145.414 38.5908 145.368 38.5171 145.353 38.4344C145.339 38.3517 145.359 38.2667 145.408 38.1983L145.836 37.5689C145.94 37.4317 146.133 37.3987 146.277 37.4934C146.417 37.5957 146.451 37.7908 146.353 37.934L145.918 38.5634C145.86 38.6486 145.763 38.6984 145.66 38.6956Z" fill="#231F20"/>
<path d="M125.773 37.3418C125.705 37.3423 125.638 37.3201 125.584 37.2789C122.799 35.1639 121.072 32.5957 120.732 30.0527V29.9834C120.691 29.8463 120.748 29.6989 120.87 29.6246C120.941 29.5785 121.027 29.5632 121.109 29.5822C121.192 29.6012 121.262 29.6529 121.305 29.7254C121.343 29.8021 121.364 29.8856 121.368 29.9709C121.69 32.3502 123.322 34.7673 125.981 36.7753C126.09 36.8572 126.134 37.0004 126.09 37.1296C126.045 37.2588 125.922 37.3446 125.785 37.3418H125.773Z" fill="white"/>
<path d="M124.216 27.2961C124.129 27.295 124.046 27.2559 123.99 27.1891C123.93 27.1311 123.897 27.0517 123.897 26.9688C123.897 26.8859 123.93 26.8065 123.99 26.7485L127.38 23.6012C127.437 23.5404 127.517 23.5059 127.6 23.5059C127.684 23.5059 127.764 23.5404 127.821 23.6012C127.88 23.6592 127.913 23.7387 127.913 23.8215C127.913 23.9044 127.88 23.9838 127.821 24.0419L124.431 27.1891C124.377 27.2527 124.3 27.2915 124.216 27.2961Z" fill="white"/>
<path d="M124.683 28.0525C124.595 28.0502 124.511 28.0141 124.45 27.9517C124.329 27.8272 124.329 27.6293 124.45 27.5048L127.84 24.3575C127.962 24.2376 128.158 24.2376 128.281 24.3575C128.34 24.4166 128.374 24.4971 128.374 24.581C128.374 24.6649 128.34 24.7454 128.281 24.8045L124.897 27.9517C124.84 28.0103 124.764 28.0462 124.683 28.0525Z" fill="white"/>
<path d="M125.218 28.9207C125.132 28.9228 125.048 28.8859 124.992 28.82C124.932 28.762 124.899 28.6826 124.899 28.5997C124.899 28.5168 124.932 28.4374 124.992 28.3794L128.382 25.2321C128.439 25.1712 128.519 25.1367 128.602 25.1367C128.686 25.1367 128.766 25.1712 128.823 25.2321C128.882 25.2901 128.915 25.3695 128.915 25.4524C128.915 25.5353 128.882 25.6147 128.823 25.6727L125.433 28.82C125.378 28.8819 125.301 28.9184 125.218 28.9207Z" fill="white"/>
<path d="M69.1373 77.4703L67.5557 112.355C67.5557 112.355 89.1374 112.613 101.551 107.433C102.568 104.107 103.797 100.851 105.231 97.6822C107.052 94.0062 114.872 88.5865 112.414 74.5119C112.414 74.5119 130.839 86.1568 136.031 80.8065C141.224 75.4561 143.82 50.4666 143.82 50.4666L133.032 47.0046L128.13 62.4137C128.13 62.4137 97.0392 47.3886 89.7928 45.4876C87.1021 44.7826 78.7404 49.2266 69.1562 55.3764" fill="#7C5DFA"/>
<path d="M89.1248 55.9492C89.1248 55.9492 94.1216 71.459 94.9786 78.0243C95.8356 84.5895 95.9616 95.4414 95.9616 95.4414C95.9616 95.4414 103.87 71.245 102.893 56.3017L89.1248 55.9492Z" fill="#231F20"/>
<path fill-rule="evenodd" clip-rule="evenodd" d="M95.9239 95.7242H95.9617C96.0855 95.7269 96.1961 95.6473 96.2327 95.5291C96.3083 95.3088 104.141 71.1062 103.164 56.2824C103.157 56.1379 103.038 56.0242 102.893 56.0244L89.1312 55.6719C89.0416 55.672 88.9573 55.7145 88.9039 55.7864C88.8505 55.8584 88.8343 55.9512 88.8602 56.037C88.8605 56.0379 88.861 56.0395 88.8617 56.0416C88.9718 56.3848 93.8624 71.6372 94.7015 78.068C95.5459 84.5388 95.6845 95.3466 95.6845 95.4536C95.6863 95.5905 95.7881 95.7056 95.9239 95.7242ZM95.256 77.9861C94.4809 72.0378 90.2717 58.6429 89.5093 56.2384L102.628 56.5846C103.359 69.0667 97.9277 88.0575 96.2075 93.7226C96.1319 90.3927 95.8861 82.9337 95.256 77.9861Z" fill="#231F20"/>
<path d="M63.9514 130.873H123.504L101.57 107.432L67.5746 112.354C67.5746 112.354 63.504 121.557 63.8884 128.015C63.9136 128.777 63.9325 129.752 63.9514 130.873Z" fill="#231F20"/>
<path fill-rule="evenodd" clip-rule="evenodd" d="M63.9513 131.188H123.504H123.511C123.636 131.189 123.75 131.115 123.801 131C123.852 130.885 123.829 130.751 123.744 130.659L101.809 107.218C101.738 107.143 101.635 107.105 101.532 107.118L67.5052 112.04C67.4004 112.058 67.3112 112.126 67.2657 112.222C67.0956 112.606 63.1699 121.57 63.5543 128.034C63.5984 128.809 63.6362 129.822 63.6362 130.88C63.6362 130.962 63.6696 131.042 63.7289 131.1C63.7881 131.158 63.8683 131.19 63.9513 131.188ZM122.773 130.559H64.2726C64.2726 129.686 64.2355 128.856 64.205 128.176C64.2023 128.115 64.1996 128.055 64.197 127.997C63.8442 122.149 67.2531 113.897 67.7887 112.638L101.45 107.766L122.773 130.559Z" fill="#231F20"/>
<path d="M101.179 47.6085L102.887 56.3013C102.887 56.3013 102.931 61.337 97.348 60.8523C94.0074 60.539 90.9863 58.7375 89.1249 55.9488L86.8628 40.7663C87.0575 38.0019 86.8323 35.2239 86.1948 32.5267C92.6158 31.1986 96.762 25.3887 96.762 25.3887C96.762 25.3887 99.6039 28.2842 100.763 29.1654C101.696 29.8038 102.543 30.559 103.284 31.4126C104.5 32.917 104.859 35.0194 105.174 36.8763C105.571 39.0802 105.767 41.3155 105.76 43.5548C105.659 47.8036 101.179 47.6085 101.179 47.6085Z" fill="white"/>
<path fill-rule="evenodd" clip-rule="evenodd" d="M97.3228 61.1744H98.0727C99.3505 61.2392 100.605 60.8161 101.582 59.991C102.56 59.0058 103.112 57.677 103.12 56.2898L101.475 47.9369C102.673 47.8976 103.821 47.4538 104.733 46.678C105.569 45.8679 106.027 44.7442 105.993 43.581C106 41.3248 105.802 39.0726 105.401 36.8521C105.099 35.033 104.714 32.8425 103.454 31.2563C102.714 30.3895 101.867 29.6197 100.933 28.965C100.084 28.3287 98.2949 26.5488 97.4365 25.6948C97.1485 25.4083 96.9653 25.2261 96.9573 25.2261C96.8999 25.1625 96.8158 25.1298 96.7305 25.1379C96.6451 25.145 96.567 25.1886 96.5163 25.2575C96.4785 25.3142 92.3637 31.0234 86.1318 32.2823C86.0566 32.2984 85.9909 32.3436 85.9491 32.4082C85.9056 32.4705 85.8917 32.5488 85.9113 32.6222C86.5002 35.0643 86.7252 37.5798 86.5792 40.0876C86.554 40.3408 86.554 40.5959 86.5792 40.8492C86.5855 40.9247 88.8413 56.0317 88.8413 56.0317C88.8483 56.0691 88.861 56.1052 88.8792 56.1387C90.781 59.0122 93.8883 60.8653 97.3228 61.1744ZM97.3732 60.5701C94.1478 60.2522 91.229 58.5235 89.4022 55.8492C87.1652 40.8744 87.1904 40.717 87.1904 40.717C87.1735 40.5075 87.1735 40.297 87.1904 40.0876C87.3359 37.6256 87.1236 35.1556 86.5603 32.7544C92.1369 31.4955 95.9113 26.9948 96.8124 25.8303C97.4993 26.5479 99.6102 28.6503 100.593 29.3868C101.495 30.0144 102.314 30.7524 103.032 31.5836C104.193 33 104.53 34.979 104.831 36.7452C104.841 36.8 104.85 36.8545 104.859 36.9088C105.255 39.0959 105.451 41.3144 105.445 43.537C105.479 44.5375 105.099 45.5077 104.393 46.2185C103.49 46.9523 102.356 47.3426 101.192 47.32C101.102 47.3129 101.015 47.3506 100.959 47.4207C100.904 47.4901 100.881 47.5792 100.896 47.6662L102.597 56.3024C102.567 57.5117 102.081 58.6651 101.236 59.5315C100.335 60.3624 99.0368 60.7086 97.3732 60.5701Z" fill="#231F20"/>
<path d="M101.942 51.8886C101.942 51.8886 98.4381 52.7132 95.7159 50.7933C92.9938 48.8735 92.8804 46.4375 92.8804 46.4375C92.8804 46.4375 97.1904 48.2692 101.179 47.6083L101.942 51.8886Z" fill="#231F20"/>
<path fill-rule="evenodd" clip-rule="evenodd" d="M95.5584 51.0206C96.9022 51.9198 98.4908 52.3835 100.108 52.3487C100.754 52.3577 101.398 52.2944 102.03 52.1599C102.176 52.1283 102.271 51.9861 102.244 51.8389L101.475 47.5585C101.45 47.4099 101.309 47.3092 101.16 47.3319C97.6194 47.9214 93.7492 46.4573 93.1054 46.2137C93.048 46.192 93.0163 46.18 93.0127 46.18C92.9252 46.1421 92.8241 46.1542 92.748 46.2115C92.6666 46.2628 92.6205 46.3549 92.6283 46.4507C92.6283 46.5892 92.7543 49.0441 95.5584 51.0206ZM95.8986 50.5673C94.5917 49.704 93.6511 48.3877 93.2584 46.8724C94.4304 47.3131 97.7323 48.3705 100.977 47.9236L101.645 51.6689C100.807 51.8263 98.0726 52.1032 95.8986 50.5673Z" fill="#231F20"/>
<path d="M96.5288 32.7852C96.5288 32.7852 100.127 36.436 99.5975 37.2858C99.0682 38.1355 97.1148 38.0159 97.1148 38.0159" fill="white"/>
<path d="M97.4172 38.2996H97.0959C97.0223 38.2948 96.9536 38.2608 96.9052 38.2053C96.8567 38.1498 96.8323 38.0773 96.8375 38.0038C96.8476 37.8498 96.9793 37.7322 97.1337 37.7394C97.6315 37.7394 99.024 37.7394 99.3643 37.1477C99.5786 36.7952 98.1671 34.8502 96.3334 32.987C96.2255 32.8775 96.2269 32.7014 96.3366 32.5936C96.4462 32.4858 96.6225 32.4872 96.7304 32.5967C97.8583 33.7423 100.417 36.5057 99.8369 37.4436C99.358 38.2052 98.0411 38.2996 97.4172 38.2996Z" fill="#231F20"/>
<ellipse cx="101.299" cy="33.8747" rx="0.5" ry="0.919057" transform="rotate(-13.01 101.299 33.8747)" fill="#231F20"/>
<ellipse cx="93.271" cy="34.6892" rx="0.5" ry="0.919057" transform="rotate(-13.01 93.271 34.6892)" fill="#231F20"/>
<path d="M88.9232 35.7567C88.0473 34.3404 85.9994 34.1453 84.569 34.7181C83.5983 35.065 82.9369 35.9675 82.8992 36.9967C82.8882 37.6146 82.9995 38.2285 83.2268 38.8033C83.6074 39.8808 84.1795 40.8809 84.9156 41.7554C85.2586 42.2129 85.7115 42.5766 86.2325 42.8129C86.9039 43.0497 87.652 42.8554 88.1229 42.3219" fill="white"/>
<path d="M86.825 43.2155C86.5877 43.2152 86.3525 43.1704 86.1318 43.0833C85.5666 42.8271 85.0732 42.4358 84.6951 41.9439C83.9389 41.042 83.3499 40.0124 82.956 38.9037C82.7155 38.2904 82.5978 37.636 82.6094 36.9775C82.6591 35.8408 83.3908 34.8464 84.462 34.4597C86.0373 33.8302 88.2427 34.082 89.169 35.6116C89.2349 35.7456 89.1881 35.9077 89.0608 35.9859C88.9335 36.0641 88.7676 36.0329 88.6775 35.9137C87.8899 34.6548 86.031 34.4471 84.6762 34.9884C83.8115 35.2947 83.2186 36.0935 83.1765 37.009C83.168 37.5902 83.2729 38.1674 83.4853 38.7085C83.8553 39.7535 84.4102 40.7236 85.1236 41.5726C85.438 41.9905 85.8516 42.3237 86.3272 42.5419C86.8968 42.742 87.5309 42.5749 87.9277 42.1202C87.9956 42.0305 88.1094 41.9881 88.2195 42.0116C88.3296 42.0352 88.4161 42.1203 88.4414 42.2299C88.4666 42.3395 88.426 42.4538 88.3373 42.523C87.9458 42.9462 87.4014 43.1955 86.825 43.2155Z" fill="#231F20"/>
<path d="M100.058 39.1484L95.842 39.5576C95.842 39.5576 96.7179 46.0662 98.6146 45.8899C100.511 45.7137 100.518 41.0116 100.058 39.1484Z" fill="white"/>
<path fill-rule="evenodd" clip-rule="evenodd" d="M95.5646 39.5963C95.7096 40.7105 96.5476 46.1742 98.5325 46.1742L98.6396 46.1679C99.1009 46.1141 99.5131 45.855 99.7613 45.4629C100.807 43.9962 100.688 40.5279 100.328 39.0802C100.295 38.9473 100.169 38.8589 100.032 38.8725L95.8104 39.2816C95.7344 39.2869 95.6649 39.3263 95.6213 39.3886C95.5714 39.4454 95.5505 39.5221 95.5646 39.5963ZM98.5325 45.6139C97.4172 45.6139 96.5098 42.1897 96.1569 39.8104L99.8432 39.4767C100.171 41.063 100.133 43.9774 99.3076 45.1419C99.1507 45.3984 98.8872 45.5716 98.5892 45.6139H98.5325Z" fill="#231F20"/>
<path d="M110.606 89.6198C110.502 89.6197 110.407 89.5635 110.358 89.4732C110.308 89.3829 110.311 89.2727 110.366 89.1855C110.41 89.1037 115.042 81.3236 110.612 65.1213C110.575 64.969 110.664 64.8145 110.814 64.7688C110.887 64.7477 110.966 64.7572 111.033 64.7951C111.099 64.8331 111.147 64.8962 111.166 64.9703C115.672 81.4369 111.053 89.1666 110.851 89.5191C110.792 89.5922 110.699 89.6302 110.606 89.6198Z" fill="#231F20"/>
<path d="M24.9087 67.1035L92.9369 116.132L160.965 67.1035V147.536H24.9087V67.1035Z" fill="white"/>
<path fill-rule="evenodd" clip-rule="evenodd" d="M24.5938 147.535C24.5938 147.709 24.7349 147.85 24.9089 147.85H160.965C161.138 147.847 161.277 147.708 161.28 147.535V67.1033C161.28 66.9847 161.211 66.8771 161.104 66.8263C161.004 66.7636 160.877 66.7636 160.776 66.8263L92.9371 115.716L25.0916 66.8263C24.9914 66.7636 24.8642 66.7636 24.764 66.8263C24.6582 66.8777 24.5918 66.9857 24.5938 67.1033V147.535ZM160.682 147.221H25.2051V67.7201L92.7481 116.383C92.8588 116.464 93.0092 116.464 93.1199 116.383L160.682 67.7201V147.221Z" fill="#231F20"/>
<path d="M24.9087 147.849C24.7932 147.849 24.6869 147.787 24.6314 147.685C24.5501 147.534 24.6029 147.345 24.7512 147.257L86.9949 111.687C87.1463 111.602 87.3379 111.655 87.4233 111.806C87.4664 111.878 87.4787 111.964 87.4573 112.044C87.4359 112.125 87.3828 112.194 87.3099 112.234L25.0599 147.805C25.014 147.832 24.962 147.847 24.9087 147.849Z" fill="#231F20"/>
<path d="M160.965 147.851C160.91 147.849 160.856 147.834 160.808 147.807L98.5641 112.236C98.413 112.151 98.3594 111.959 98.4444 111.808C98.5321 111.66 98.7211 111.607 98.8729 111.689L161.117 147.259C161.268 147.345 161.321 147.536 161.236 147.687C161.183 147.787 161.079 147.85 160.965 147.851Z" fill="#231F20"/>
<path d="M57.3414 110.643C57.3414 110.643 60.0951 117.806 60.7441 118.196C61.3931 118.586 69.0618 121.721 68.5135 123.188C67.9653 124.654 64.5123 122.867 64.5123 122.867C64.5123 122.867 69.4839 128.614 68.1733 129.627C66.8626 130.64 62.4518 132.699 60.6811 131.862C58.9105 131.024 50.0824 120.097 48.2109 115.351" fill="white"/>
<path d="M61.7521 132.39C61.3413 132.402 60.9327 132.325 60.5549 132.163C58.6645 131.263 49.7797 120.203 47.9209 115.482C47.8804 115.377 47.8994 115.257 47.9707 115.169C48.0421 115.082 48.155 115.038 48.2669 115.056C48.3788 115.074 48.4727 115.15 48.5132 115.256C50.4036 120.096 59.2883 130.866 60.8195 131.622C62.3507 132.377 66.6545 130.463 67.9903 129.425C68.0484 129.371 68.0824 129.296 68.0849 129.217C68.2046 127.958 65.3753 124.389 64.3041 123.118C64.2052 123.003 64.2016 122.835 64.2956 122.716C64.3895 122.598 64.5544 122.563 64.6885 122.633C65.3186 122.96 67.1208 123.741 67.9273 123.432C68.077 123.382 68.1953 123.266 68.2487 123.118C68.3999 122.708 67.4043 121.682 61.7899 119.083C61.1094 118.768 60.7502 118.598 60.6053 118.504C59.9248 118.069 57.7319 112.48 57.0766 110.78C57.0459 110.702 57.048 110.614 57.0823 110.538C57.1167 110.461 57.1804 110.401 57.2593 110.371C57.4211 110.311 57.6008 110.393 57.6626 110.554C58.9733 113.959 60.5612 117.667 60.9519 117.981C61.059 118.051 61.519 118.265 62.0546 118.51C66.5789 120.6 69.2884 122.142 68.841 123.338C68.7236 123.656 68.4726 123.907 68.1542 124.024C67.3046 124.197 66.4218 124.096 65.6337 123.735C66.8498 125.251 68.8599 127.977 68.7339 129.274C68.7132 129.52 68.5926 129.748 68.3999 129.903C67.3602 130.69 64.008 132.39 61.7521 132.39Z" fill="#231F20"/>
<path d="M69.1559 55.4023C52.9491 65.801 33.2388 81.1031 31.5753 84.6784C28.9162 90.3435 48.8029 118.833 48.8029 118.833L59.5717 112.009L49.7292 90.652L69.137 77.4648" fill="#7C5DFA"/>
<path d="M56.7113 86.2447C56.6165 86.2473 56.5266 86.2025 56.4719 86.1251C56.3835 85.9939 56.414 85.8164 56.5412 85.7222L78.3309 70.4831C78.393 70.4373 78.4712 70.4188 78.5473 70.4318C78.6234 70.4449 78.6909 70.4884 78.7342 70.5523C78.7777 70.6157 78.7942 70.6938 78.78 70.7694C78.7658 70.845 78.7221 70.9118 78.6586 70.9552L56.8752 86.1943C56.8277 86.2288 56.77 86.2465 56.7113 86.2447Z" fill="#231F20"/>
<path d="M151.387 129.433L177.796 113.287L155.42 122.597L151.387 129.433Z" fill="#231F20"/>
<path fill-rule="evenodd" clip-rule="evenodd" d="M151.167 129.652C151.225 129.712 151.304 129.746 151.387 129.747C151.447 129.737 151.503 129.714 151.551 129.678L177.979 113.557C178.12 113.472 178.172 113.293 178.097 113.145C178.023 112.998 177.847 112.934 177.695 112.997L155.294 122.307C155.232 122.333 155.181 122.38 155.149 122.439L151.116 129.268C151.043 129.393 151.064 129.551 151.167 129.652ZM152.301 128.488L155.634 122.823L174.16 115.124L152.301 128.488Z" fill="#231F20"/>
<path d="M155.42 122.597L164.053 127.009L177.796 113.287L155.42 122.597Z" fill="white"/>
<path fill-rule="evenodd" clip-rule="evenodd" d="M163.92 127.261C163.961 127.283 164.007 127.294 164.053 127.292C164.131 127.297 164.207 127.267 164.261 127.21L178.004 113.488C178.103 113.394 178.119 113.242 178.042 113.129C177.965 113.017 177.821 112.972 177.695 113.022L155.307 122.332C155.204 122.379 155.137 122.478 155.13 122.59C155.124 122.702 155.187 122.806 155.288 122.854L163.92 127.261ZM163.996 126.656L156.101 122.628L176.561 114.111L163.996 126.656Z" fill="#231F20"/>
<path d="M177.796 113.287L149.365 120.073L142.9 116.378L177.796 113.287Z" fill="white"/>
<path fill-rule="evenodd" clip-rule="evenodd" d="M149.201 120.317C149.243 120.342 149.291 120.355 149.339 120.355L149.409 120.349L177.84 113.569C177.986 113.532 178.079 113.39 178.054 113.242C178.029 113.095 177.895 112.991 177.745 113.003L142.849 116.094C142.726 116.107 142.625 116.197 142.598 116.318C142.571 116.439 142.624 116.564 142.729 116.629L149.201 120.317ZM149.384 119.757L143.813 116.578L173.914 113.941L149.384 119.757Z" fill="#231F20"/>
<path d="M149.365 120.073L151.387 129.433L155.42 122.597L177.796 113.287L149.365 120.073Z" fill="white"/>
<path fill-rule="evenodd" clip-rule="evenodd" d="M151.343 129.722H151.388C151.498 129.731 151.604 129.674 151.658 129.577L155.641 122.829L177.909 113.557C178.059 113.509 178.141 113.348 178.092 113.199C178.043 113.049 177.883 112.967 177.733 113.016L149.302 119.795C149.228 119.812 149.164 119.857 149.124 119.921C149.084 119.985 149.071 120.062 149.088 120.135L151.104 129.502C151.131 129.617 151.226 129.704 151.343 129.722ZM151.514 128.645L149.705 120.28L174.374 114.395L155.307 122.326C155.25 122.351 155.202 122.393 155.168 122.445L151.514 128.645Z" fill="#231F20"/>
<path d="M145.559 130.736C145.42 130.733 145.3 130.64 145.263 130.507C145.225 130.374 145.279 130.232 145.395 130.157L146.447 129.483C146.593 129.388 146.79 129.429 146.885 129.575C146.981 129.721 146.94 129.916 146.794 130.012L145.729 130.692C145.677 130.721 145.618 130.736 145.559 130.736Z" fill="#D1D3D4"/>
<path fill-rule="evenodd" clip-rule="evenodd" d="M18.2058 111.821C18.256 111.938 18.3731 112.012 18.5005 112.008C18.5973 112.01 18.6899 111.968 18.7526 111.894C19.3197 111.29 19.9057 110.705 20.5358 110.151C20.5955 110.092 20.629 110.011 20.629 109.927C20.629 109.843 20.5955 109.763 20.5358 109.704C20.4778 109.645 20.3983 109.611 20.3153 109.611C20.2323 109.611 20.1528 109.645 20.0947 109.704C19.4646 110.27 18.8534 110.85 18.2737 111.479C18.1825 111.568 18.1556 111.704 18.2058 111.821ZM15.3499 115.91C15.2666 115.913 15.1855 115.884 15.1231 115.829C15.0546 115.782 15.0081 115.709 14.9938 115.627C14.9796 115.546 14.9989 115.462 15.0474 115.394C15.5263 114.702 16.043 114.016 16.5723 113.361C16.6824 113.228 16.8792 113.208 17.0134 113.317C17.1486 113.425 17.1711 113.622 17.0638 113.758C16.5408 114.387 16.0367 115.073 15.5642 115.753C15.5148 115.838 15.4288 115.896 15.331 115.91H15.3499ZM12.6026 120.235C12.6612 120.256 12.7253 120.259 12.7853 120.241L12.7664 120.235C12.8698 120.233 12.966 120.181 13.0247 120.096C13.3902 119.353 13.7872 118.617 14.2157 117.906C14.3023 117.754 14.2519 117.561 14.1023 117.471C14.0307 117.428 13.9448 117.416 13.864 117.437C13.7833 117.459 13.7147 117.512 13.6738 117.585C13.239 118.315 12.8294 119.064 12.4576 119.813C12.4207 119.888 12.4152 119.975 12.4424 120.054C12.4696 120.133 12.5273 120.198 12.6026 120.235ZM10.8949 124.899C10.8637 124.905 10.8316 124.905 10.8004 124.899C10.7199 124.874 10.6526 124.819 10.6135 124.744C10.5745 124.67 10.5669 124.583 10.5925 124.502C10.8382 123.709 11.1281 122.904 11.4494 122.111C11.5255 121.967 11.698 121.905 11.848 121.967C11.998 122.029 12.0764 122.195 12.0292 122.35C11.7204 123.124 11.4368 123.911 11.1911 124.691C11.1493 124.818 11.0288 124.903 10.8949 124.899ZM9.7544 129.802H9.79851C9.9607 129.8 10.0943 129.674 10.1073 129.513C10.2144 128.701 10.3656 127.876 10.5484 127.064C10.5671 126.983 10.5524 126.897 10.5074 126.826C10.4625 126.755 10.391 126.705 10.3089 126.687C10.1389 126.651 9.97145 126.757 9.93084 126.926C9.7418 127.776 9.59687 128.619 9.48345 129.444C9.46092 129.617 9.58136 129.777 9.7544 129.802ZM141.211 133.309C141.07 133.307 140.947 133.212 140.91 133.076C140.873 132.939 140.932 132.795 141.053 132.723C141.866 132.257 142.597 131.836 143.227 131.464C143.299 131.42 143.385 131.407 143.467 131.427C143.549 131.447 143.619 131.499 143.662 131.571C143.75 131.721 143.702 131.914 143.555 132.006C142.925 132.383 142.188 132.811 141.368 133.264C141.326 133.289 141.279 133.304 141.23 133.309H141.211ZM9.26291 134.523C9.27292 134.69 9.41109 134.82 9.57797 134.819H9.59687C9.68049 134.814 9.75872 134.776 9.81429 134.714C9.86986 134.651 9.8982 134.569 9.89303 134.486C9.85522 134.007 9.85522 133.516 9.85522 133.032V132.006C9.85863 131.922 9.82867 131.841 9.77193 131.779C9.71519 131.718 9.63635 131.682 9.55276 131.678C9.46873 131.673 9.38624 131.702 9.32438 131.759C9.26252 131.817 9.22666 131.896 9.2251 131.98V133.032C9.2251 133.281 9.23461 133.532 9.24409 133.782C9.25351 134.031 9.26291 134.279 9.26291 134.523ZM136.8 135.745C136.684 135.746 136.577 135.683 136.523 135.581C136.443 135.428 136.498 135.238 136.649 135.153C137.359 134.775 138.033 134.408 138.671 134.06L138.861 133.957C138.959 133.887 139.09 133.88 139.195 133.938C139.301 133.997 139.364 134.111 139.357 134.232C139.351 134.352 139.275 134.458 139.163 134.505C138.47 134.888 137.733 135.291 136.945 135.713C136.906 135.733 136.863 135.744 136.819 135.745H136.8ZM132.043 137.891C132.094 138 132.205 138.069 132.326 138.067C132.375 138.066 132.423 138.053 132.465 138.029C133.246 137.639 133.996 137.255 134.714 136.884C134.869 136.804 134.93 136.614 134.85 136.459C134.77 136.304 134.579 136.244 134.425 136.324C133.706 136.701 132.956 137.079 132.181 137.469C132.027 137.548 131.965 137.736 132.043 137.891ZM10.4223 139.748C10.2805 139.747 10.1567 139.652 10.1199 139.515C9.88914 138.697 9.70402 137.867 9.56536 137.029C9.53752 136.855 9.65601 136.691 9.83002 136.664C10.004 136.636 10.1676 136.754 10.1955 136.928C10.3214 137.751 10.4939 138.567 10.7122 139.37C10.7356 139.45 10.7262 139.536 10.686 139.61C10.6458 139.683 10.5782 139.737 10.4979 139.76L10.4223 139.748ZM127.531 140.094C127.582 140.204 127.693 140.274 127.815 140.27C127.86 140.271 127.905 140.263 127.947 140.245L130.222 139.15C130.378 139.073 130.443 138.885 130.367 138.728C130.29 138.572 130.101 138.507 129.944 138.583C129.213 138.942 128.457 139.307 127.676 139.672C127.601 139.709 127.543 139.774 127.516 139.853C127.489 139.932 127.494 140.019 127.531 140.094ZM123.234 142.373C123.11 142.371 122.998 142.301 122.944 142.19C122.908 142.114 122.906 142.026 122.937 141.947C122.967 141.869 123.029 141.807 123.107 141.775L123.38 141.652L123.612 141.548C124.218 141.275 124.812 141.008 125.395 140.736C125.553 140.663 125.741 140.732 125.814 140.89C125.887 141.049 125.818 141.236 125.66 141.309C124.91 141.655 124.147 142.001 123.36 142.348C123.32 142.365 123.277 142.374 123.234 142.373ZM12.3253 144.412C12.2095 144.414 12.1024 144.351 12.0481 144.249C11.6363 143.505 11.2681 142.737 10.9453 141.951C10.9026 141.846 10.9189 141.727 10.9882 141.638C11.0574 141.548 11.1691 141.503 11.2812 141.518C11.3932 141.533 11.4886 141.607 11.5314 141.712C11.841 142.478 12.1988 143.225 12.6026 143.946C12.6829 144.1 12.6272 144.289 12.4765 144.374C12.4298 144.399 12.378 144.412 12.3253 144.412ZM113.632 146.142C113.706 146.229 113.82 146.27 113.933 146.25V146.256C113.974 146.256 114.014 146.25 114.053 146.238L116.397 145.281C116.557 145.212 116.633 145.027 116.567 144.865C116.5 144.706 116.317 144.63 116.157 144.695L113.819 145.621C113.707 145.641 113.614 145.72 113.575 145.827C113.536 145.935 113.558 146.055 113.632 146.142ZM14.997 148.39C15.0585 148.458 15.1452 148.497 15.2365 148.497V148.504C15.323 148.508 15.4073 148.476 15.4696 148.416C15.5905 148.291 15.5905 148.093 15.4696 147.969C14.9161 147.355 14.3986 146.71 13.9195 146.036C13.8588 145.934 13.7456 145.874 13.6267 145.883C13.5079 145.891 13.4039 145.965 13.3579 146.075C13.3118 146.185 13.3317 146.311 13.4091 146.401C13.9007 147.093 14.4309 147.758 14.997 148.39ZM104.468 149.693C104.294 149.721 104.131 149.603 104.103 149.429C104.075 149.255 104.194 149.092 104.368 149.064C105.168 148.793 105.962 148.523 106.743 148.246C106.908 148.191 107.087 148.277 107.146 148.441C107.175 148.518 107.17 148.604 107.135 148.678C107.099 148.753 107.035 148.81 106.957 148.837C106.17 149.114 105.376 149.391 104.569 149.662L104.468 149.693ZM18.9479 151.878C18.8797 151.878 18.8132 151.856 18.7589 151.815C18.072 151.305 17.4104 150.763 16.7929 150.203C16.7332 150.144 16.6997 150.064 16.6997 149.98C16.6997 149.896 16.7332 149.815 16.7929 149.756C16.851 149.697 16.9305 149.664 17.0134 149.664C17.0964 149.664 17.1759 149.697 17.234 149.756C17.8479 150.313 18.4894 150.838 19.1559 151.33C19.2951 151.434 19.3233 151.631 19.2189 151.771C19.1509 151.847 19.0502 151.887 18.9479 151.878ZM94.5566 152.463C94.593 152.595 94.7126 152.687 94.8494 152.69H94.8464C94.8805 152.693 94.9151 152.689 94.9472 152.677C95.7601 152.45 96.5667 152.211 97.3669 151.972C97.4481 151.95 97.5169 151.896 97.5573 151.822C97.5978 151.749 97.6064 151.662 97.5812 151.582C97.5297 151.417 97.3557 151.325 97.1905 151.374L94.7771 152.073C94.6098 152.122 94.512 152.295 94.5566 152.463ZM23.0563 154.483C23.1012 154.507 23.1507 154.52 23.2013 154.521V154.534C23.3753 154.574 23.5488 154.465 23.5888 154.292C23.6288 154.118 23.5202 153.944 23.3462 153.904C22.5963 153.52 21.8654 153.111 21.1786 152.69C21.1081 152.643 21.0217 152.628 20.9396 152.647C20.8575 152.666 20.7868 152.718 20.7438 152.79C20.6993 152.861 20.685 152.947 20.7039 153.028C20.7228 153.11 20.7735 153.18 20.8446 153.225C21.5503 153.671 22.2939 154.093 23.0563 154.483ZM85.0732 155.195C84.9606 155.207 84.85 155.159 84.783 155.067C84.716 154.976 84.7028 154.856 84.7483 154.753C84.7939 154.649 84.8913 154.578 85.0039 154.565C85.823 154.376 86.6359 154.188 87.4487 153.986C87.6174 153.947 87.7863 154.051 87.8268 154.219C87.8477 154.301 87.8347 154.388 87.7909 154.46C87.747 154.532 87.676 154.584 87.5937 154.603L87.5931 154.603L87.5925 154.603L87.5919 154.604L87.5913 154.604L87.5907 154.604L87.5901 154.604L87.5895 154.604L87.5889 154.604L87.5883 154.604L87.5877 154.604L87.5871 154.605L87.5865 154.605L87.5859 154.605L87.5853 154.605L87.5847 154.605L87.5842 154.605L87.5836 154.605L87.583 154.606L87.5824 154.606L87.5818 154.606L87.5812 154.606L87.5806 154.606L87.58 154.606L87.5794 154.606C86.7713 154.8 85.9632 154.994 85.1425 155.176L85.0732 155.195ZM27.8453 156.491C27.8119 156.497 27.7778 156.497 27.7445 156.491C26.9379 156.208 26.1376 155.9 25.3752 155.579C25.2981 155.546 25.2375 155.483 25.2067 155.405C25.176 155.327 25.1777 155.24 25.2114 155.163C25.2805 155.006 25.4626 154.934 25.6209 155C26.3708 155.314 27.1584 155.629 27.9524 155.9C28.1264 155.929 28.2435 156.094 28.2139 156.268C28.1843 156.442 28.0193 156.559 27.8453 156.529V156.491ZM74.9156 156.919C74.9405 157.07 75.0717 157.18 75.2243 157.178H75.281L77.7637 156.731C77.9339 156.699 78.0464 156.536 78.0158 156.366C78.0021 156.283 77.9554 156.21 77.8865 156.162C77.8176 156.115 77.7324 156.097 77.6503 156.114L75.1739 156.554C75.0032 156.586 74.8888 156.748 74.9156 156.919ZM32.6909 157.901H32.6153C31.7773 157.706 30.9518 157.492 30.1641 157.272C29.9994 157.221 29.9048 157.048 29.9499 156.882C29.9986 156.715 30.1735 156.619 30.3406 156.668C31.1219 156.888 31.9348 157.102 32.7602 157.297C32.8421 157.315 32.9131 157.365 32.9571 157.437C33.001 157.508 33.0141 157.594 32.9934 157.675C32.9506 157.811 32.8212 157.902 32.6783 157.895L32.6909 157.901ZM69.9376 157.694C69.9622 157.849 70.0955 157.963 70.2527 157.964L70.2716 157.958L72.7921 157.587C72.875 157.573 72.9489 157.527 72.9974 157.458C73.0459 157.389 73.065 157.304 73.0504 157.222C73.0381 157.139 72.993 157.065 72.9253 157.017C72.8577 156.968 72.7733 156.949 72.6912 156.964L70.2085 157.335C70.1246 157.346 70.0486 157.39 69.9977 157.458C69.9467 157.525 69.925 157.61 69.9376 157.694ZM65.2558 158.594C65.1432 158.601 65.0356 158.547 64.9735 158.453C64.9113 158.359 64.9041 158.239 64.9546 158.138C65.005 158.037 65.1054 157.971 65.218 157.964C66.0581 157.872 66.8983 157.771 67.7385 157.662C67.9125 157.64 68.0719 157.762 68.0945 157.936C68.1171 158.11 67.9944 158.269 67.8204 158.292L65.2999 158.588L65.2558 158.594ZM37.587 158.82H37.6185C37.7729 158.813 37.8999 158.696 37.921 158.543C37.9336 158.461 37.9128 158.377 37.8632 158.309C37.8135 158.242 37.7391 158.197 37.6563 158.185C36.8182 158.065 35.9865 157.927 35.1862 157.776C35.0737 157.754 34.9582 157.794 34.8834 157.881C34.8086 157.968 34.7858 158.088 34.8236 158.196C34.8613 158.304 34.9539 158.384 35.0665 158.405C35.9046 158.556 36.7426 158.695 37.587 158.82ZM60.24 159.079C60.066 159.079 59.9249 158.938 59.9249 158.764C59.9249 158.59 60.066 158.449 60.24 158.449C61.078 158.38 61.9098 158.304 62.7605 158.222C62.9326 158.211 63.0842 158.335 63.107 158.506C63.1158 158.589 63.0908 158.673 63.0376 158.738C62.9843 158.803 62.9072 158.844 62.8235 158.852C61.9833 158.932 61.1432 159.007 60.303 159.079H60.24ZM40.1201 159.135C40.9456 159.223 41.7836 159.299 42.6406 159.362H42.7099C42.8839 159.362 43.025 159.221 43.025 159.047C43.025 158.873 42.8839 158.732 42.7099 158.732C41.834 158.669 41.0023 158.594 40.1894 158.512C40.1061 158.5 40.0214 158.522 39.9556 158.575C39.8898 158.627 39.8489 158.705 39.8428 158.789C39.8244 158.961 39.9482 159.115 40.1201 159.135ZM55.2116 159.406C55.0459 159.406 54.9096 159.275 54.9028 159.11C54.8977 159.027 54.926 158.944 54.9816 158.882C55.0371 158.819 55.1154 158.781 55.199 158.776C56.037 158.739 56.8751 158.688 57.7195 158.632C57.8035 158.625 57.8867 158.652 57.9498 158.708C58.0128 158.764 58.0503 158.843 58.0534 158.927C58.0604 159.01 58.0335 159.093 57.9789 159.155C57.9244 159.218 57.8467 159.256 57.7636 159.261C56.9255 159.318 56.0875 159.368 55.2431 159.406H55.2116ZM45.4298 159.518H45.4299H45.43H45.4301H45.4302H45.4303H45.4304H45.4305H45.4306H45.4307H45.4308H45.4309H45.431H45.4311H45.4312H45.4314H45.4315H45.4316H45.4317L45.4319 159.518C46.1559 159.547 46.8982 159.576 47.6501 159.576H47.6564C47.7427 159.579 47.8267 159.548 47.8896 159.489C47.9524 159.429 47.9887 159.347 47.9904 159.261C47.9904 159.178 47.9572 159.098 47.8981 159.039C47.839 158.98 47.7589 158.946 47.6753 158.946C46.812 158.934 45.974 158.909 45.1548 158.877C45.0712 158.874 44.9897 158.904 44.9283 158.96C44.8668 159.017 44.8304 159.096 44.8271 159.179C44.8234 159.352 44.9571 159.496 45.1296 159.507L45.4298 159.518ZM49.8555 159.261C49.8589 159.433 49.998 159.572 50.1706 159.576H50.1769L51.6829 159.544L52.6974 159.513C52.7821 159.511 52.8625 159.476 52.9206 159.414C52.9787 159.352 53.0096 159.27 53.0061 159.186C52.993 159.015 52.85 158.883 52.6785 158.883L51.664 158.915L50.1643 158.946C49.9927 158.95 49.8555 159.09 49.8555 159.261ZM79.8368 156C79.8689 156.146 79.9967 156.25 80.1456 156.252L80.2086 156.246L82.6787 155.73C82.7603 155.713 82.8317 155.664 82.8768 155.595C82.9219 155.525 82.9368 155.44 82.9182 155.358C82.9015 155.277 82.8529 155.205 82.7832 155.159C82.7134 155.113 82.6283 155.096 82.5464 155.113L80.0826 155.629C80.0007 155.646 79.9288 155.694 79.8827 155.764C79.8366 155.834 79.8201 155.919 79.8368 156ZM89.6416 153.728C89.6621 153.899 89.815 154.022 89.9853 154.006C90.0152 154.014 90.0466 154.014 90.0764 154.005C90.8955 153.804 91.7084 153.594 92.5149 153.376C92.6275 153.346 92.7159 153.259 92.7468 153.147C92.7778 153.035 92.7466 152.915 92.6649 152.833C92.5833 152.75 92.4637 152.717 92.3511 152.746L89.9188 153.376C89.7448 153.397 89.6207 153.554 89.6416 153.728ZM99.377 151.028C99.4142 151.16 99.5358 151.25 99.6732 151.248V151.254C99.7056 151.254 99.7377 151.248 99.7677 151.236C100.581 150.984 101.381 150.732 102.175 150.474C102.34 150.42 102.43 150.242 102.376 150.077C102.352 149.997 102.296 149.93 102.221 149.892C102.146 149.854 102.059 149.848 101.979 149.876C101.761 149.945 101.543 150.015 101.324 150.085C100.748 150.269 100.17 150.453 99.5849 150.631C99.5044 150.656 99.4371 150.712 99.3981 150.786C99.359 150.861 99.3514 150.948 99.377 151.028ZM109.22 148.032C109.088 148.028 108.971 147.946 108.923 147.824C108.864 147.66 108.949 147.48 109.112 147.421C109.656 147.224 110.191 147.025 110.723 146.826L110.724 146.826L110.725 146.825L110.726 146.825C110.976 146.732 111.226 146.639 111.475 146.546C111.631 146.507 111.791 146.59 111.847 146.74C111.904 146.89 111.839 147.059 111.696 147.131C110.915 147.427 110.127 147.717 109.327 148.006C109.295 148.026 109.257 148.037 109.22 148.038V148.032ZM118.319 144.173C118.364 144.293 118.48 144.371 118.608 144.368C118.65 144.369 118.691 144.36 118.728 144.343L121.053 143.361C121.213 143.291 121.287 143.105 121.217 142.946C121.148 142.786 120.961 142.712 120.801 142.782C120.239 143.044 119.666 143.278 119.086 143.516C118.885 143.598 118.684 143.68 118.482 143.764C118.325 143.833 118.253 144.015 118.319 144.173Z" fill="#D1D3D4"/>
<path d="M22.2686 108.616C22.1726 108.616 22.0817 108.572 22.0229 108.496C21.9164 108.357 21.9417 108.158 22.0796 108.049C22.4199 107.798 22.7601 107.546 23.1067 107.3C23.1988 107.229 23.3227 107.214 23.4289 107.262C23.5351 107.31 23.6064 107.412 23.6141 107.528C23.6218 107.644 23.5648 107.755 23.4659 107.817C23.1256 108.056 22.7916 108.301 22.464 108.553C22.4077 108.595 22.339 108.617 22.2686 108.616Z" fill="#D1D3D4"/>
<path d="M163.58 71.0051C163.5 71.0076 163.422 70.9755 163.366 70.917C163.307 70.859 163.273 70.7796 163.273 70.6967C163.273 70.6138 163.307 70.5344 163.366 70.4764C163.366 70.4764 163.675 70.1491 164.21 69.5574C164.279 69.4564 164.401 69.4044 164.521 69.424C164.642 69.4437 164.741 69.5314 164.774 69.649C164.807 69.7667 164.769 69.8929 164.677 69.9728C164.135 70.6023 163.82 70.9107 163.82 70.9107C163.758 70.9755 163.67 71.01 163.58 71.0051Z" fill="#D1D3D4"/>
<path fill-rule="evenodd" clip-rule="evenodd" d="M164.242 13.794H164.299V13.7752C164.446 13.7789 164.575 13.6789 164.608 13.536C164.634 13.3645 164.52 13.2028 164.349 13.1709C163.503 13.0261 162.648 12.9294 161.791 12.8813C161.706 12.8704 161.621 12.8967 161.557 12.9534C161.493 13.0101 161.456 13.0917 161.457 13.1772C161.452 13.2607 161.48 13.3428 161.536 13.4054C161.591 13.468 161.669 13.5059 161.753 13.5108C162.588 13.5564 163.419 13.651 164.242 13.794ZM169.151 15.2733C169.107 15.2819 169.062 15.2819 169.018 15.2733C168.26 14.9281 167.479 14.6337 166.681 14.392C166.568 14.3594 166.481 14.2693 166.453 14.1556C166.425 14.0419 166.46 13.922 166.545 13.8409C166.629 13.7598 166.751 13.73 166.863 13.7626C167.689 14.0099 168.498 14.3127 169.283 14.669C169.359 14.7032 169.418 14.7666 169.446 14.8448C169.475 14.9231 169.471 15.0095 169.434 15.0844C169.381 15.1911 169.27 15.2573 169.151 15.2544V15.2733ZM173.184 17.9485C173.242 17.9961 173.316 18.0227 173.391 18.024V18.0051C173.471 18.0051 173.547 17.976 173.606 17.9233C173.727 17.7988 173.727 17.6009 173.606 17.4764C172.959 16.9031 172.27 16.3791 171.545 15.909C171.451 15.841 171.326 15.8306 171.222 15.8821C171.117 15.9336 171.05 16.0385 171.046 16.1549C171.043 16.2713 171.104 16.3801 171.205 16.4378C171.902 16.8906 172.563 17.3956 173.184 17.9485ZM176.63 21.9077C176.521 21.9085 176.419 21.854 176.359 21.763C175.925 21.054 175.441 20.3766 174.91 19.7361C174.801 19.602 174.821 19.4055 174.954 19.2955C175.017 19.241 175.1 19.2142 175.183 19.2213C175.266 19.2284 175.342 19.2688 175.395 19.3333C175.942 19.9904 176.443 20.6844 176.895 21.4105C176.941 21.4809 176.956 21.5671 176.937 21.6492C176.918 21.7312 176.867 21.8019 176.794 21.8448C176.745 21.8748 176.688 21.8901 176.63 21.8889V21.9077ZM178.432 26.2951C178.476 26.4244 178.598 26.5108 178.735 26.5091V26.4902C178.768 26.498 178.802 26.5002 178.836 26.4965C178.998 26.4399 179.085 26.2632 179.031 26.0999C178.767 25.284 178.458 24.4833 178.105 23.7017C178.058 23.5994 177.959 23.53 177.847 23.5198C177.734 23.5095 177.625 23.5599 177.56 23.6519C177.495 23.744 177.484 23.8638 177.531 23.9661C177.874 24.7253 178.175 25.5028 178.432 26.2951ZM179.875 31.444C179.718 31.4429 179.585 31.3284 179.56 31.1734C179.441 30.3299 179.283 29.499 179.1 28.7059C179.062 28.5321 179.172 28.3602 179.346 28.3219C179.52 28.2837 179.692 28.3936 179.731 28.5674C179.913 29.3731 180.071 30.2229 180.197 31.0852C180.22 31.2565 180.103 31.415 179.932 31.444H179.875ZM179.97 36.1713C179.973 36.3426 180.113 36.4797 180.285 36.4797H180.291C180.464 36.4729 180.6 36.3312 180.6 36.1587C180.581 35.29 180.537 34.434 180.474 33.6094C180.468 33.5258 180.428 33.4482 180.364 33.3939C180.3 33.3395 180.217 33.3129 180.134 33.3198C180.051 33.3246 179.973 33.3627 179.918 33.4256C179.864 33.4884 179.837 33.5705 179.844 33.6534C179.907 34.4717 179.97 35.3152 179.97 36.1713ZM180.14 41.5531H180.109C179.937 41.5365 179.81 41.385 179.825 41.2132C179.825 41.0624 179.841 40.9137 179.858 40.7647C179.87 40.6524 179.883 40.54 179.888 40.4264C179.888 40.07 179.909 39.716 179.93 39.3672L179.93 39.3671L179.93 39.367L179.93 39.3669L179.93 39.3668L179.93 39.3667C179.943 39.1426 179.956 38.9207 179.964 38.7017C179.964 38.6176 179.998 38.5372 180.058 38.479C180.119 38.4208 180.201 38.3898 180.285 38.3932C180.458 38.4 180.594 38.5418 180.594 38.7143C180.594 39.1504 180.568 39.5902 180.542 40.0392L180.542 40.0393L180.542 40.0398C180.534 40.1803 180.526 40.3217 180.518 40.4642C180.518 40.6654 180.497 40.8632 180.476 41.0626L180.476 41.0627C180.469 41.1315 180.462 41.2005 180.455 41.2699C180.436 41.4299 180.301 41.5511 180.14 41.5531ZM178.987 46.5132H179.081H179.107C179.229 46.5144 179.341 46.4461 179.397 46.337C179.636 45.462 179.85 44.6249 180.027 43.8192C180.058 43.6495 179.949 43.4855 179.781 43.4478C179.612 43.4127 179.447 43.5192 179.409 43.687C179.245 44.4738 179.031 45.2921 178.779 46.1167C178.729 46.2833 178.822 46.4591 178.987 46.5132ZM177.248 51.2468C177.204 51.2557 177.159 51.2557 177.115 51.2468C177.04 51.2126 176.981 51.1492 176.952 51.0709C176.924 50.9927 176.928 50.9063 176.964 50.8313C177.323 50.0445 177.657 49.264 177.947 48.5086C177.977 48.4298 178.037 48.3661 178.114 48.3318C178.191 48.2975 178.278 48.2954 178.357 48.3261C178.519 48.3904 178.6 48.5719 178.54 48.7352C178.237 49.5032 177.909 50.2963 177.538 51.0894C177.481 51.1826 177.382 51.2416 177.273 51.2468H177.248ZM174.753 55.7159C174.8 55.7457 174.854 55.7611 174.91 55.76H174.935C175.038 55.7509 175.13 55.6921 175.181 55.6026C175.616 54.8473 176.032 54.0982 176.41 53.3617C176.49 53.207 176.429 53.0168 176.274 52.9368C176.119 52.8569 175.929 52.9175 175.849 53.0722C175.477 53.7961 175.068 54.5451 174.639 55.2879C174.596 55.3593 174.584 55.4452 174.605 55.5259C174.627 55.6065 174.68 55.6751 174.753 55.7159ZM172.213 60.0655C172.095 60.0691 171.985 60.0051 171.93 59.9007C171.875 59.7962 171.885 59.6696 171.955 59.5745C172.415 58.8884 172.881 58.1834 173.335 57.4532C173.429 57.3082 173.621 57.2637 173.77 57.3525C173.915 57.4465 173.958 57.6408 173.864 57.7868C173.429 58.4855 172.963 59.2031 172.478 59.927C172.424 60.0075 172.335 60.0586 172.238 60.0655H172.213ZM169.063 64.138C169.118 64.1764 169.184 64.1982 169.252 64.201L169.277 64.2136C169.369 64.204 169.453 64.1531 169.504 64.0751C170.001 63.4268 170.505 62.7406 171.022 62.0231C171.123 61.8805 171.089 61.6833 170.947 61.5824C170.804 61.4816 170.606 61.5154 170.505 61.658C169.995 62.3693 169.491 63.0617 169.006 63.6911C168.899 63.8306 168.925 64.0296 169.063 64.138ZM165.893 68.091C165.951 68.1395 166.025 68.1662 166.101 68.1666C166.205 68.1769 166.306 68.1343 166.372 68.0533C166.863 67.4742 167.412 66.8132 167.991 66.0831C168.044 66.0185 168.069 65.9351 168.06 65.8521C168.05 65.769 168.007 65.6934 167.941 65.6424C167.805 65.5353 167.608 65.5578 167.5 65.6928C167.228 66.0209 166.964 66.3447 166.71 66.656C166.424 67.0077 166.15 67.3432 165.893 67.6504C165.834 67.7084 165.8 67.7878 165.8 67.8707C165.8 67.9536 165.834 68.033 165.893 68.091Z" fill="#D1D3D4"/>
<path d="M157.953 13.6114C157.841 13.6204 157.732 13.5687 157.668 13.4758C157.604 13.383 157.594 13.263 157.643 13.1611C157.691 13.0592 157.79 12.9909 157.903 12.9819C158.32 12.9167 158.741 12.8747 159.163 12.856C159.337 12.8456 159.487 12.9781 159.497 13.1519C159.508 13.3257 159.375 13.4751 159.201 13.4855C158.439 13.5296 157.985 13.5988 157.985 13.5988L157.953 13.6114Z" fill="#D1D3D4"/>
<path d="M1.90086 42.0111C0.998558 40.9083 1.16196 39.2826 2.2657 38.3815L19.7488 24.1073C20.8509 23.2074 22.4736 23.3706 23.3746 24.4717L30.1066 32.6996C31.0089 33.8024 30.8455 35.4281 29.7417 36.3292L12.2587 50.6034C11.1566 51.5033 9.53383 51.3402 8.63285 50.239L1.90086 42.0111Z" fill="white"/>
<path fill-rule="evenodd" clip-rule="evenodd" d="M10.3024 51.8956H10.4977C10.9394 51.8965 11.3675 51.7428 11.7076 51.4613L30.7058 35.9515C31.1037 35.6344 31.3567 35.1704 31.4077 34.6646C31.4587 34.1587 31.3034 33.6537 30.9768 33.2637L22.9994 23.5134C22.682 23.116 22.2175 22.8632 21.7111 22.8122C21.2047 22.7613 20.6992 22.9165 20.3088 23.2427L1.31053 38.7589C0.912681 39.0759 0.659637 39.5399 0.60864 40.0458C0.557644 40.5516 0.713005 41.0567 1.03958 41.4466L9.04216 51.2032C9.35451 51.5909 9.80741 51.8397 10.3024 51.8956ZM20.7058 23.7274C20.9373 23.5447 21.2236 23.4449 21.5186 23.4442C21.9076 23.4436 22.275 23.6225 22.5142 23.9288L30.4916 33.6602C30.7118 33.9209 30.8166 34.2597 30.7822 34.5991C30.7478 34.9384 30.5769 35.2493 30.3089 35.4605L11.3232 50.9766C11.0594 51.1901 10.7223 51.2917 10.3843 51.2599C10.0454 51.2275 9.73401 51.0595 9.52106 50.7941L1.54368 41.0501C1.33023 40.784 1.22857 40.4454 1.26012 40.1059C1.28778 39.7702 1.44891 39.4596 1.70751 39.2435L20.7058 23.7274Z" fill="#D1D3D4"/>
<path d="M0.945186 40.2941C0.771182 40.2941 0.630124 40.1532 0.630124 39.9794C0.621368 39.8965 0.646567 39.8136 0.699983 39.7496C0.753399 39.6855 0.830484 39.6458 0.91368 39.6395L16.7487 38.2673L21.2478 23.0407C21.2697 22.9596 21.3237 22.8909 21.3975 22.8505C21.4712 22.8101 21.5582 22.8015 21.6385 22.8267C21.803 22.8781 21.8956 23.0519 21.8464 23.2169L17.2969 38.6512C17.2631 38.776 17.1549 38.8665 17.026 38.8778L0.976692 40.2941H0.945186Z" fill="#D1D3D4"/>
<path d="M17.6437 36.6193C17.4697 36.6193 17.3286 36.4784 17.3286 36.3045C17.3286 36.1307 17.4697 35.9898 17.6437 35.9898L31.0401 34.4602C31.2112 34.4452 31.3638 34.5672 31.3867 34.7372C31.3973 34.8208 31.374 34.9051 31.3219 34.9714C31.2698 35.0376 31.1933 35.0803 31.1094 35.0897L17.7004 36.6193H17.6437Z" fill="#D1D3D4"/>
<path d="M10.4789 51.895C10.4477 51.9009 10.4156 51.9009 10.3844 51.895C10.304 51.8705 10.2371 51.8144 10.199 51.7396C10.161 51.6648 10.1551 51.5777 10.1827 51.4984L14.3478 38.689C14.3827 38.5765 14.475 38.4912 14.59 38.4652C14.7049 38.4392 14.825 38.4764 14.905 38.5628C14.9851 38.6492 15.0129 38.7717 14.978 38.8841L10.8128 51.6936C10.7597 51.8282 10.6229 51.9107 10.4789 51.895Z" fill="#D1D3D4"/>
<path d="M171.756 85.0836C172.211 84.0351 173.429 83.5537 174.478 84.0079L191.138 91.2234C192.188 91.6781 192.67 92.8983 192.214 93.9479L188.81 101.792C188.355 102.84 187.137 103.322 186.088 102.867L169.428 95.6519C168.378 95.1971 167.896 93.977 168.351 92.9274L171.756 85.0836Z" fill="white"/>
<path fill-rule="evenodd" clip-rule="evenodd" d="M186.7 103.461C186.899 103.546 187.113 103.591 187.33 103.593C187.534 103.586 187.735 103.541 187.922 103.461C188.316 103.305 188.631 102.999 188.798 102.611L192.831 93.3389C192.995 92.9483 192.995 92.5083 192.831 92.1177C192.676 91.7229 192.37 91.4058 191.98 91.2365L173.877 83.3997C173.066 83.0525 172.126 83.4234 171.772 84.2306L167.746 93.5151C167.585 93.9085 167.585 94.3492 167.746 94.7425C167.902 95.1374 168.211 95.4527 168.603 95.6175L186.7 103.461ZM172.396 84.4824C172.549 84.128 172.898 83.898 173.284 83.897C173.408 83.8991 173.531 83.927 173.644 83.9788L191.734 91.8219C191.973 91.9215 192.16 92.1151 192.251 92.3569C192.349 92.5927 192.349 92.8576 192.251 93.0934L188.218 102.384C188.119 102.621 187.928 102.807 187.689 102.9C187.451 102.998 187.184 102.998 186.945 102.9L168.842 95.0573C168.357 94.8469 168.132 94.2851 168.338 93.7984L172.396 84.4824Z" fill="#D1D3D4"/>
<path d="M179.793 94.893C179.686 94.8953 179.585 94.8402 179.529 94.7483L172.597 83.8083C172.505 83.6605 172.55 83.4661 172.698 83.374C172.846 83.2818 173.041 83.3269 173.133 83.4747L179.926 94.2321L192.434 91.8339C192.516 91.8154 192.602 91.8311 192.672 91.8774C192.742 91.9238 192.79 91.9967 192.805 92.0794C192.836 92.251 192.724 92.4159 192.553 92.4507L179.838 94.893H179.793Z" fill="#D1D3D4"/>
<path d="M187.695 103.536C187.59 103.536 187.491 103.484 187.431 103.398L181.394 94.4279C181.299 94.2835 181.338 94.0896 181.482 93.9936C181.551 93.9463 181.636 93.929 181.718 93.9456C181.8 93.9622 181.872 94.0113 181.917 94.0817L187.954 103.077C188.049 103.223 188.01 103.419 187.865 103.517C187.811 103.538 187.753 103.545 187.695 103.536Z" fill="#D1D3D4"/>
<path d="M168.086 95.0568C167.93 95.0588 167.796 94.9463 167.771 94.7924C167.758 94.7097 167.779 94.6254 167.829 94.5581C167.878 94.4908 167.953 94.446 168.035 94.4336L178.747 92.6837C178.86 92.6657 178.974 92.7091 179.046 92.7975C179.117 92.8858 179.137 93.0058 179.096 93.1122C179.055 93.2186 178.961 93.2952 178.848 93.3132L168.136 95.063L168.086 95.0568Z" fill="#D1D3D4"/>
<path d="M50.5964 11.2352C50.8594 10.4428 51.7147 10.0134 52.5072 10.2759L65.1092 14.4489C65.9024 14.7116 66.3323 15.5678 66.0691 16.3609L64.0993 22.2971C63.8363 23.0894 62.981 23.5189 62.1885 23.2564L49.5865 19.0834C48.7933 18.8207 48.3634 17.9645 48.6266 17.1714L50.5964 11.2352Z" fill="white"/>
<path fill-rule="evenodd" clip-rule="evenodd" d="M62.6218 23.728C62.7479 23.7694 62.8797 23.7907 63.0125 23.791C63.5559 23.7915 64.0385 23.4439 64.2097 22.9286L66.5348 15.9039C66.7512 15.247 66.3967 14.5388 65.7409 14.3176L52.0483 9.78554C51.3909 9.57405 50.6855 9.93056 50.4667 10.5849L48.1352 17.6097C48.031 17.9253 48.0559 18.2692 48.2045 18.5665C48.3534 18.8636 48.6139 19.0899 48.9292 19.1959L62.6218 23.728ZM63.296 23.13C63.1426 23.193 62.9705 23.193 62.8171 23.13L49.1434 18.6294C48.9857 18.5786 48.8544 18.4678 48.7779 18.321C48.7181 18.1671 48.7181 17.9965 48.7779 17.8426L51.1094 10.8178C51.1617 10.6627 51.2724 10.534 51.4182 10.4591C51.5665 10.3838 51.7387 10.3702 51.8971 10.4213L65.5897 14.9534C65.7461 15.0071 65.8751 15.1202 65.9488 15.2681C66.0119 15.4214 66.0119 15.5933 65.9488 15.7465L63.6111 22.7649C63.5587 22.9236 63.4454 23.0549 63.296 23.13Z" fill="#D1D3D4"/>
<path d="M57.0578 17.9494C56.9589 17.9484 56.8659 17.902 56.8058 17.8235L51.0402 10.3078C50.9467 10.1701 50.9766 9.98366 51.1084 9.88203C51.2401 9.78041 51.4283 9.7987 51.538 9.9238L57.1524 17.2696L66.0497 14.7517C66.1308 14.7286 66.2178 14.7389 66.2912 14.7803C66.3646 14.8217 66.4183 14.8908 66.4404 14.9721C66.4846 15.1388 66.3863 15.31 66.2199 15.356L57.1209 17.962L57.0578 17.9494Z" fill="#D1D3D4"/>
<path d="M63.3715 23.727C63.2752 23.7285 63.184 23.6841 63.1258 23.6074L58.1478 17.4514C58.0382 17.3158 58.0593 17.1171 58.1951 17.0076C58.3308 16.8981 58.5297 16.9192 58.6393 17.0548L63.6173 23.2172C63.7245 23.3529 63.702 23.5497 63.5669 23.6578C63.5112 23.7018 63.4425 23.7261 63.3715 23.727Z" fill="#D1D3D4"/>
<path d="M48.5197 18.8183C48.4071 18.8318 48.2959 18.7843 48.2279 18.6936C48.1599 18.603 48.1455 18.483 48.1901 18.3789C48.2347 18.2748 48.3315 18.2023 48.4441 18.1888L56.119 16.2249C56.2 16.2039 56.2861 16.216 56.3583 16.2585C56.4304 16.301 56.4826 16.3705 56.5034 16.4515C56.5243 16.5317 56.512 16.6169 56.4693 16.688C56.4267 16.759 56.3572 16.8099 56.2765 16.8292L48.6016 18.7994L48.5197 18.8183Z" fill="#D1D3D4"/>
</svg>
